<?xml version="1.0" encoding="UTF-8" standalone="no"?>
<svg id="Layer_1" version="1.1" x="0" y="0" viewBox="0 0 50 50" xml:space="preserve" width="100%" height="100%" xmlns="http://www.w3.org/2000/svg">
   <g transform="scale(0.83333333)" style="fill:#6482b9;fill-opacity:0.5;">
      <path d="M 52,38.36 V 36 h 1 c 0.553,0 1,-0.447 1,-1 0,-0.553 -0.447,-1 -1,-1 H 52 51 37 36 35 c -0.553,0 -1,0.447 -1,1 0,0.553 0.447,1 1,1 h 1 v 2.36 c 0,3.535 1.845,6.748 4.827,8.64 C 37.845,48.892 36,52.105 36,55.64 V 58 h -1 c -0.553,0 -1,0.447 -1,1 0,0.553 0.447,1 1,1 h 1 1 14 1 1 c 0.553,0 1,-0.447 1,-1 0,-0.553 -0.447,-1 -1,-1 H 52 V 55.64 C 52,52.105 50.155,48.892 47.173,47 50.155,45.108 52,41.895 52,38.36 Z M 50,55.64 V 58 H 38 v -2.36 c 0,-3.319 2.033,-6.298 5.197,-7.64 h 1.605 C 47.967,49.342 50,52.32 50,55.64 Z M 44.803,46 H 43.198 C 40.033,44.658 38,41.68 38,38.36 V 36 h 12 v 2.36 c 0,3.32 -2.033,6.298 -5.197,7.64 z" />
      <path d="M 33.53,27.553 20.586,18.19 c -0.396,-0.286 -0.945,-0.242 -1.293,0.104 -0.348,0.348 -0.391,0.896 -0.104,1.293 l 9.365,12.947 c 0.614,0.844 1.563,1.375 2.604,1.456 0.095,0.006 0.188,0.01 0.28,0.01 0.941,0 1.847,-0.372 2.518,-1.044 0.737,-0.737 1.114,-1.756 1.033,-2.797 -0.081,-1.041 -0.612,-1.99 -1.459,-2.606 z m -0.988,3.989 c -0.324,0.324 -0.773,0.481 -1.227,0.453 -0.457,-0.035 -0.874,-0.269 -1.142,-0.637 l -5.713,-7.897 7.895,5.711 c 0.371,0.27 0.604,0.687 0.64,1.144 0.036,0.455 -0.13,0.903 -0.453,1.226 z" />
      <path d="m 30,0 c -0.553,0 -1,0.447 -1,1 v 13.291 c 0,0.553 0.447,1 1,1 0.553,0 1,-0.447 1,-1 V 2.018 C 45.979,2.546 58,14.896 58,30 c 0,3.468 -0.634,6.863 -1.883,10.094 -0.199,0.515 0.057,1.094 0.572,1.293 0.118,0.046 0.24,0.067 0.36,0.067 0.4,0 0.779,-0.243 0.933,-0.64 C 59.321,37.354 60,33.715 60,30 60,13.458 46.542,0 30,0 Z" />
      <path d="M 23.243,57.18 C 10.735,54.081 2,42.904 2,30 2,22.54 4.9,15.521 10.166,10.235 10.557,9.843 10.555,9.211 10.164,8.821 9.772,8.43 9.14,8.434 8.75,8.823 3.107,14.487 0,22.008 0,30 c 0,13.825 9.36,25.8 22.763,29.121 0.08,0.02 0.161,0.029 0.241,0.029 0.448,0 0.856,-0.305 0.97,-0.76 0.132,-0.536 -0.195,-1.077 -0.731,-1.21 z" />
   </g>
</svg>