<?xml version="1.0" encoding="UTF-8" standalone="no"?>
<svg id="Layer_1" version="1.1" x="0" y="0" viewBox="0 0 50 50" xml:space="preserve" width="100%" height="100%" xmlns="http://www.w3.org/2000/svg">
   <g transform="scale(0.83333333)" style="fill:#6482b9;fill-opacity:0.5;">
      <path d="M 29,60 H 53 V 36 H 29 Z m 2,-22 h 9 V 50.586 L 35.707,46.293 34.293,47.707 41,54.414 47.707,47.707 46.293,46.293 42,50.586 V 38 h 9 V 58 H 31 Z" />
      <path d="m 31.158,33.989 c 0.094,0.007 0.187,0.011 0.28,0.011 0.941,0 1.847,-0.372 2.518,-1.044 0.738,-0.737 1.114,-1.757 1.033,-2.798 -0.082,-1.04 -0.612,-1.989 -1.459,-2.605 L 20.586,18.19 c -0.398,-0.288 -0.947,-0.244 -1.293,0.104 -0.347,0.348 -0.391,0.896 -0.103,1.293 l 9.365,12.946 c 0.613,0.844 1.563,1.374 2.603,1.456 z m -6.697,-10.528 7.895,5.711 c 0.371,0.27 0.604,0.686 0.639,1.143 0.036,0.456 -0.129,0.903 -0.453,1.228 -0.324,0.324 -0.769,0.489 -1.228,0.453 -0.457,-0.036 -0.873,-0.269 -1.141,-0.637 z" />
      <path d="m 30,0 c -0.552,0 -1,0.447 -1,1 v 13.291 c 0,0.553 0.448,1 1,1 0.552,0 1,-0.447 1,-1 V 2.018 C 45.978,2.546 58,14.896 58,30 c 0,3.468 -0.634,6.863 -1.883,10.094 -0.199,0.515 0.057,1.094 0.572,1.293 0.118,0.046 0.24,0.067 0.36,0.067 0.4,0 0.779,-0.243 0.933,-0.64 C 59.321,37.354 60,33.715 60,30 60,13.458 46.542,0 30,0 Z" />
      <path d="M 23.243,57.18 C 10.735,54.081 2,42.904 2,30 2,22.54 4.9,15.521 10.167,10.235 10.557,9.843 10.556,9.211 10.164,8.821 9.773,8.429 9.139,8.431 8.75,8.823 3.107,14.487 0,22.008 0,30 c 0,13.825 9.36,25.801 22.762,29.121 0.081,0.02 0.162,0.029 0.242,0.029 0.449,0 0.857,-0.305 0.97,-0.76 0.132,-0.536 -0.195,-1.077 -0.731,-1.21 z" />
   </g>
</svg>