<?xml version="1.0" encoding="UTF-8" standalone="no"?>
<svg id="Layer_1" version="1.1" x="0" y="0" viewBox="0 0 50 50" xml:space="preserve" width="100%" height="100%" xmlns="http://www.w3.org/2000/svg">
   <g transform="scale(0.83333333)" style="fill:#6482b9;fill-opacity:0.5;">
      <path d="M 34,60 H 58 V 36 H 34 Z m 2,-22 h 9 V 50.586 L 40.707,46.293 39.293,47.707 46,54.414 52.707,47.707 51.293,46.293 47,50.586 V 38 h 9 V 58 H 36 Z" />
      <path d="M 33.53,28.553 20.586,19.19 c -0.396,-0.286 -0.945,-0.242 -1.293,0.104 -0.348,0.348 -0.391,0.896 -0.104,1.293 l 9.365,12.946 c 0.669,0.918 1.747,1.467 2.884,1.467 0.95,0 1.845,-0.371 2.518,-1.044 0.737,-0.737 1.114,-1.756 1.033,-2.797 -0.081,-1.041 -0.612,-1.99 -1.459,-2.606 z" />
      <path d="m 30,0 c -0.553,0 -1,0.447 -1,1 v 13.292 c 0,0.553 0.447,1 1,1 0.553,0 1,-0.447 1,-1 V 2.018 C 45.979,2.546 58,14.896 58,30 c 0,1.014 -0.057,2.014 -0.163,3 H 59.85 C 59.948,32.013 60,31.013 60,30 60,13.458 46.542,0 30,0 Z" />
      <path d="M 2,30 C 2,22.54 4.9,15.521 10.166,10.236 10.557,9.844 10.555,9.212 10.164,8.822 9.772,8.434 9.14,8.434 8.75,8.824 3.107,14.486 0,22.007 0,30 c 0,16.542 13.458,30 30,30 0.335,0 0.667,-0.015 1,-0.025 v -2 C 30.667,57.986 30.335,58 30,58 14.561,58 2,45.439 2,30 Z" />
   </g>
</svg>