<?xml version="1.0" encoding="UTF-8" standalone="no"?>
<svg id="Layer_1" version="1.1" x="0" y="0" viewBox="0 0 50 50" xml:space="preserve" width="100%" height="100%" xmlns="http://www.w3.org/2000/svg">
  <g transform="scale(0.09765625)" style="fill:#6481b7;fill-opacity:0.5">
		<path d="m 384,372.07 v -128 c 0,-70.579 -57.421,-128 -128,-128 -70.579,0 -128,57.421 -128,128 v 128 c -14.14,0 -25.6,11.46 -25.6,25.6 v 25.6 c 0,14.14 11.46,25.6 25.6,25.6 h 256 c 14.14,0 25.6,-11.46 25.6,-25.6 v -25.6 c 0,-14.139 -11.46,-25.6 -25.6,-25.6 z m -230.4,-128 c 0,-56.559 45.85,-102.4 102.4,-102.4 56.55,0 102.4,45.841 102.4,102.4 v 128 H 153.6 Z M 384,423.27 H 128 v -25.6 h 256 z" />
		<path d="M 129.348,117.419 111.257,99.328 C 74.172,136.405 51.2,187.605 51.2,244.07 c 0,38.502 10.88,74.419 29.431,105.224 l 21.922,-13.15 C 86.315,309.188 76.8,277.76 76.8,244.07 c 0,-49.408 20.096,-94.208 52.548,-126.651 z" />
		<path d="M 400.751,99.319 382.66,117.41 c 32.444,32.452 52.54,77.252 52.54,126.66 0,33.69 -9.515,65.118 -25.745,92.075 l 21.922,13.15 C 449.92,318.49 460.8,282.564 460.8,244.07 460.8,187.605 437.828,136.405 400.751,99.319 Z" />
		<path d="m 436.932,63.13 -18.099,18.099 c 41.728,41.719 67.567,99.319 67.567,162.842 0,43.315 -12.237,83.729 -33.109,118.374 l 21.922,13.158 C 498.406,337.101 512,292.198 512,244.07 512,173.483 483.294,109.483 436.932,63.13 Z" />
		<path d="M 93.158,81.229 75.068,63.13 C 28.706,109.483 0,173.483 0,244.07 0,292.198 13.594,337.1 36.779,375.603 L 58.701,362.445 C 37.837,327.791 25.6,287.377 25.6,244.07 25.6,180.548 51.439,122.948 93.158,81.229 Z" />
  </g>
  <g style="fill:#6481b7;fill-opacity:0.5;stroke:#6481b7;stroke-width:2;stroke-linecap:round;stroke-linejoin:miter;stroke-miterlimit:4;stroke-dasharray:none;stroke-opacity:0.5">
    <path d="M 0.96455213,49.022224 C 49.035448,0.96455213 49.035448,0.96455213 49.035448,0.96455213" />
  </g>
</svg>
