<?xml version="1.0" encoding="UTF-8" standalone="no"?>
<svg id="Layer_1" version="1.1" x="0" y="0" viewBox="0 0 50 50" xml:space="preserve" width="100%" height="100%" xmlns="http://www.w3.org/2000/svg">
   <g style="fill:#6482b9;stroke:none;fill-opacity:0.5;">
      <path d="M 30.39966,25.000028 A 5.3996603,5.3996508 0 0 1 25,30.399654 5.3996603,5.3996508 0 0 1 19.60034,25.000028 5.3996603,5.3996508 0 0 1 25,19.600334 a 5.3996603,5.3996508 0 0 1 5.39966,5.399694 z" />
   </g>
   <g style="fill:none;stroke:#6482b9;stroke-width:2;stroke-linecap:round;stroke-linejoin:round;stroke-miterlimit:4;stroke-dasharray:none;stroke-opacity:0.5;">
      <path d="m 34.907458,15.454677 a 10.89009,13.49915 0 0 1 3.189633,9.54534 10.89009,13.49915 0 0 1 -3.189633,9.54534" />
      <path d="M 43.082293,9.8134521 A 20.204304,21.477017 0 0 1 49,25.000017 20.204304,21.477017 0 0 1 43.082296,40.186548" />
      <path d="m 14.690485,34.608963 a 10.890092,13.49915 0 0 1 -3.189635,-9.545341 10.890092,13.49915 0 0 1 3.189634,-9.54534" />
      <path d="M 6.9177044,40.186548 A 20.204304,21.477017 0 0 1 1,25.000017 20.204304,21.477017 0 0 1 6.9177038,9.8134521" />
   </g>
</svg>