<?xml version="1.0" encoding="UTF-8" standalone="no"?>
<svg id="Layer_1" version="1.1" x="0" y="0" viewBox="0 0 50 50" xml:space="preserve" width="100%" height="100%" xmlns="http://www.w3.org/2000/svg">
   <g style="fill:none;stroke:#6482b9;stroke-width:1.5;stroke-linecap:round;stroke-linejoin:round;stroke-miterlimit:4;stroke-dasharray:none;stroke-opacity:0.5">
      <rect y="0.75091302" x="15.613006" height="48.498177" width="18.773989" />
      <circle r="5.4186525" cy="13.474191" cx="26.492365" />
      <circle r="5.4186525" cx="26.548107" cy="40.230045" />
      <path d="m 11.199176,44.397378 h 3.546689" />
      <path d="m 11.244144,34.897378 h 3.371315" />
      <path d="m 11.329582,17.705529 h 3.546689" />
      <path d="m 11.37455,8.249925 h 3.371315" />
      <path d="M 17.396934,13.474191 H 30.999423" />
      <path d="M 19.331964,40.649442 H 17.264805" />
      <path d="m 26.492365,4.3315812 v 2.067159" />
      <path d="m 26.548107,31.188023 v 13.60249" />
      <path d="m 34.760682,8.249925 h 3.692799" />
      <path d="m 34.760682,17.705529 h 3.692799" />
      <path d="m 34.906792,44.397378 h 3.546689" />
      <path d="m 34.95176,34.897378 h 3.371315" />
   </g>
   <g style="fill:none;stroke:#6482b9;stroke-width:0.5;stroke-linecap:round;stroke-linejoin:round;stroke-miterlimit:4;stroke-dasharray:none;stroke-opacity:0.5">
      <path d="m 17.652525,11.791384 0.75055,0.75055" />
      <path d="m 18.263278,13.627962 c 0,-4.628553 3.702271,-8.3807369 8.269254,-8.3807366" />
      <path d="m 18.263278,40.383815 c 0,-4.628553 3.702271,-8.380737 8.269254,-8.380737" />
      <path d="m 19.158625,11.825417 -0.75055,0.75055" />
      <path d="m 24.886558,31.312055 0.75055,0.75055" />
      <path d="m 24.852525,32.818155 0.75055,-0.75055" />
   </g>
   <g style="font-style:normal;font-variant:normal;font-weight:normal;font-stretch:normal;font-size:8px;line-height:1.25;font-family:Arial;-inkscape-font-specification:'Arial, Normal';font-variant-ligatures:normal;font-variant-caps:normal;font-variant-numeric:normal;font-feature-settings:normal;text-align:start;letter-spacing:0px;word-spacing:0px;writing-mode:lr-tb;text-anchor:start;fill:#6482b9;fill-opacity:1;stroke:none;stroke-width:1.5;stroke-linejoin:miter;stroke-miterlimit:4;stroke-dasharray:none;stroke-opacity:0.5">
      <text y="10.90062" x="0" id="text5058">Ov</text>
      <text y="10.90062" x="39.340321">Oc</text>
      <text y="20.402344" x="0.064880341">Os</text>
      <text y="20.402344" x="39.156727">Oa</text>
      <text y="37.40062" x="0">Cv</text>
      <text y="46.902344" x="0.064880386">Cs</text>
      <text y="37.40062" x="39.156727">Cc</text>
      <text y="46.902344" x="39.221607">Ca</text>
   </g>
</svg>