<?xml version="1.0" encoding="UTF-8" standalone="no"?>
<svg id="Layer_1" version="1.1" x="0" y="0" viewBox="0 0 50 50" xml:space="preserve" width="100%" height="100%" xmlns="http://www.w3.org/2000/svg">
   <g transform="scale(0.83333333)" style="fill:#6482b9;fill-opacity:0.5;">
      <path d="M 57,38.36 V 36 h 1 c 0.553,0 1,-0.447 1,-1 0,-0.553 -0.447,-1 -1,-1 H 57 56 42 41 40 c -0.553,0 -1,0.447 -1,1 0,0.553 0.447,1 1,1 h 1 v 2.36 c 0,3.535 1.845,6.748 4.827,8.64 C 42.845,48.892 41,52.105 41,55.64 V 58 h -1 c -0.553,0 -1,0.447 -1,1 0,0.553 0.447,1 1,1 h 1 1 14 1 1 c 0.553,0 1,-0.447 1,-1 0,-0.553 -0.447,-1 -1,-1 H 57 V 55.64 C 57,52.105 55.155,48.892 52.173,47 55.155,45.108 57,41.895 57,38.36 Z M 55,55.64 V 58 H 43 v -2.36 c 0,-3.319 2.033,-6.298 5.197,-7.64 h 1.605 C 52.967,49.342 55,52.32 55,55.64 Z M 49.803,46 H 48.198 C 45.033,44.658 43,41.68 43,38.36 V 36 h 12 v 2.36 c 0,3.32 -2.033,6.298 -5.197,7.64 z" />
      <path d="m 28.555,33.532 c 0.668,0.919 1.746,1.468 2.883,1.468 0.95,0 1.845,-0.371 2.518,-1.044 0.737,-0.737 1.114,-1.756 1.033,-2.797 -0.081,-1.041 -0.612,-1.99 -1.459,-2.606 L 20.586,19.19 c -0.396,-0.286 -0.945,-0.242 -1.293,0.104 -0.348,0.348 -0.391,0.896 -0.104,1.293 z" />
      <path d="m 30,0 c -0.553,0 -1,0.447 -1,1 v 13.292 c 0,0.553 0.447,1 1,1 0.553,0 1,-0.447 1,-1 V 2.018 C 45.979,2.546 58,14.896 58,30 c 0,0.335 -0.014,0.667 -0.025,1 h 2 C 59.986,30.667 60,30.335 60,30 60,13.458 46.542,0 30,0 Z" />
      <path d="M 2,30 C 2,22.54 4.9,15.521 10.166,10.236 10.557,9.844 10.555,9.212 10.164,8.822 9.772,8.434 9.14,8.434 8.75,8.824 3.107,14.486 0,22.007 0,30 c 0,16.542 13.458,30 30,30 2.771,0 5.451,-0.385 8,-1.092 V 56.829 C 35.464,57.587 32.78,58 30,58 14.561,58 2,45.439 2,30 Z" />
   </g>
</svg>