<?xml version="1.0" encoding="UTF-8" standalone="no"?>
<svg id="Layer_1" version="1.1" x="0px" y="0px" viewBox="0 0 50 50" xml:space="preserve" width="100%" height="100%" xmlns="http://www.w3.org/2000/svg">
   <g style="fill:none;stroke:#6482b9;stroke-width:1.5;stroke-linejoin:miter;stroke-miterlimit:4;stroke-dasharray:none;stroke-opacity:0.5">
      <path style="stroke-linecap:butt" d="M 22.492506,18.080735 H 13.554614 V 0.5012784 h 8.937892 m 0,0 a 8.3944432,8.7779915 0 0 1 8.394444,8.7781727 8.3944432,8.7779915 0 0 1 -8.394444,8.7776799" />
      <path style="stroke-linecap:butt" d="M 22.48722,49.498722 H 13.543695 V 32.336291 h 8.943525 m 0,0 a 8.3997306,8.5699904 0 0 1 8.39973,8.569657 8.3997306,8.5699904 0 0 1 -8.39973,8.570152" />
      <circle style="stroke-linecap:butt" r="1.5" cx="33.387" cy="9.2904749" />
      <circle style="stroke-linecap:butt" r="1.5" cx="33.387" cy="40.917233" />
      <path style="stroke-linecap:round" d="M 6.5241577,6.138979 H 12.972717" />
      <path style="stroke-linecap:round" d="M 6.5060786,43.847742 H 12.967336" />
      <path style="stroke-linecap:round" d="M 6.9795518,12.425824 H 13.329231" />
      <path style="stroke-linecap:round" d="M 6.9795518,37.559916 H 13.329231" />
      <path style="stroke-linecap:round" d="m 35.5,9.2824013 h 7.2" />
      <path style="stroke-linecap:round" d="m 35.5,40.91726 h 7.2" />
      <path style="stroke-linecap:round" d="M 6.9795518,12.534998 V 18.07139" />
      <path style="stroke-linecap:round" d="m 6.9795518,32.344651 v 5.051504" />
      <path style="stroke-linecap:round" d="m 39,32.4 v 8" />
      <path style="stroke-linecap:round" d="m 39,9.8 v 8" />
      <path style="stroke-linecap:butt" d="M 6.9726587,18.052213 39,32.364321" />
      <path style="stroke-linecap:butt" d="M 6.9721122,32.365796 39,17.893368" />
      <circle style="stroke-linecap:butt" r="0.6" cx="38.993645" cy="9.2820692" />
      <circle style="stroke-linecap:butt" r="0.6" cx="38.993645" cy="40.996471" />
      <path style="stroke-width:0.7;stroke-linecap:round;" d="m 45.163828,37.252065 h 4.49231" />
      <path style="stroke-width:0.7;stroke-linecap:round;" d="M 0.3581766,40.521874 H 4.6010288" />
      <path style="stroke-width:0.7;stroke-linecap:round;" d="M 0.4069238,2.8770404 H 4.4376332" />
      <g style="fill:#6482b9;fill-opacity:1;stroke:none;font-style:normal;font-variant:normal;font-weight:normal;font-stretch:normal;font-size:8px;line-height:1.25;font-family:Arial;-inkscape-font-specification:'Arial, Normal';font-variant-ligatures:normal;font-variant-caps:normal;font-variant-numeric:normal;font-feature-settings:normal;text-align:start;letter-spacing:0px;word-spacing:0px;writing-mode:lr-tb;text-anchor:start;">
         <text x="44.070312" y="11.973807" xml:space="preserve">Q</text>
         <text x="44.070312" y="44.054688" xml:space="preserve">Q</text>
         <text x="-0.62890625" y="47.400002" xml:space="preserve">R</text>
         <text x="-0.359375" y="9.6060524" xml:space="preserve">S</text>
      </g>
   </g>
</svg>
