<?xml version="1.0" encoding="UTF-8" standalone="no"?>
<svg id="Layer_1" version="1.1" x="0" y="0" viewBox="0 0 50 50" xml:space="preserve" width="100%" height="100%" xmlns="http://www.w3.org/2000/svg">
   <g transform="scale(0.83333333)" style="fill:#6482b9;fill-opacity:0.5;">
      <path d="m 46.684,36.596 c -2.396,0 -4.407,1.448 -5.684,3.212 -1.276,-1.764 -3.288,-3.213 -5.684,-3.213 -3.818,0 -6.871,2.964 -7.271,7.053 -0.042,0.267 -0.144,1.219 0.226,2.709 0.546,2.197 1.801,4.192 3.631,5.77 l 8.329,7.127 c 0.223,0.191 0.496,0.287 0.769,0.287 0.273,0 0.546,-0.096 0.769,-0.286 l 8.332,-7.129 c 1.828,-1.577 3.082,-3.571 3.628,-5.769 0.369,-1.489 0.268,-2.441 0.226,-2.709 -0.4,-4.089 -3.453,-7.052 -7.271,-7.052 z m 5.103,9.278 c -0.445,1.794 -1.479,3.432 -2.99,4.733 L 41,57.279 33.205,50.608 c -1.513,-1.303 -2.547,-2.94 -2.992,-4.734 -0.302,-1.214 -0.194,-1.897 -0.194,-1.897 l 0.016,-0.105 c 0.245,-2.622 2.138,-5.276 5.282,-5.276 2.189,0 3.974,1.811 4.77,3.605 L 41,44.261 41.914,42.2 c 0.796,-1.794 2.579,-3.604 4.77,-3.604 3.145,0 5.037,2.654 5.295,5.366 10e-4,0.007 0.112,0.691 -0.192,1.912 z" />
      <path d="m 28.555,33.958 c 0.614,0.844 1.563,1.375 2.604,1.456 0.094,0.007 0.187,0.011 0.279,0.011 0.941,0 1.847,-0.372 2.518,-1.044 0.737,-0.737 1.114,-1.756 1.033,-2.797 -0.081,-1.041 -0.612,-1.99 -1.459,-2.606 L 20.586,19.615 c -0.396,-0.285 -0.945,-0.243 -1.293,0.104 -0.348,0.348 -0.391,0.896 -0.104,1.293 z m 3.8,-3.361 c 0.371,0.27 0.604,0.687 0.64,1.144 0.036,0.456 -0.13,0.903 -0.453,1.227 -0.324,0.324 -0.775,0.485 -1.227,0.453 -0.457,-0.035 -0.874,-0.269 -1.142,-0.637 L 24.46,24.887 Z" />
      <path d="m 30,0.425 c -0.553,0 -1,0.447 -1,1 v 13.291 c 0,0.553 0.447,1 1,1 0.553,0 1,-0.447 1,-1 V 2.442 c 14.979,0.529 27,12.878 27,27.983 0,3.468 -0.634,6.863 -1.883,10.094 -0.199,0.515 0.057,1.094 0.572,1.293 0.118,0.046 0.24,0.067 0.36,0.067 0.4,0 0.779,-0.243 0.933,-0.64 C 59.321,37.778 60,34.14 60,30.425 c 0,-16.542 -13.458,-30 -30,-30 z" />
      <path d="M 23.243,57.604 C 10.735,54.506 2,43.329 2,30.425 2,22.965 4.9,15.946 10.166,10.66 10.557,10.268 10.555,9.636 10.164,9.246 9.772,8.854 9.14,8.858 8.75,9.248 3.107,14.912 0,22.433 0,30.425 c 0,13.825 9.36,25.8 22.763,29.121 0.08,0.02 0.161,0.029 0.241,0.029 0.448,0 0.856,-0.305 0.97,-0.76 0.132,-0.536 -0.195,-1.078 -0.731,-1.211 z" />
   </g>
</svg>