<?xml version="1.0" encoding="UTF-8" standalone="no"?>
<svg id="Layer_1" version="1.1" x="0" y="0" viewBox="0 0 50 50" xml:space="preserve" width="100%" height="100%" xmlns="http://www.w3.org/2000/svg">
   <g transform="scale(0.83333333)" style="fill:#6482b9;fill-opacity:0.5;">
      <path d="m 48.684,36.058 c -2.396,0 -4.407,1.449 -5.684,3.213 -1.276,-1.764 -3.288,-3.213 -5.684,-3.213 -3.819,0 -6.871,2.963 -7.271,7.052 -0.042,0.268 -0.144,1.22 0.226,2.709 0.546,2.197 1.801,4.192 3.631,5.77 l 8.329,7.127 C 42.445,58.898 42.719,59 43,59 c 0.281,0 0.555,-0.102 0.769,-0.284 L 52.1,51.587 c 1.828,-1.575 3.083,-3.57 3.629,-5.768 0.37,-1.49 0.268,-2.443 0.226,-2.71 -0.4,-4.088 -3.453,-7.051 -7.271,-7.051 z m 5.103,9.279 c -0.445,1.794 -1.479,3.432 -2.99,4.732 L 43,56.741 35.205,50.07 c -1.513,-1.303 -2.547,-2.94 -2.992,-4.734 -0.302,-1.213 -0.194,-1.897 -0.194,-1.897 l 0.016,-0.105 c 0.245,-2.621 2.138,-5.275 5.282,-5.275 2.189,0 3.974,1.811 4.77,3.605 l 0.913,2.06 0.914,-2.061 c 0.796,-1.795 2.58,-3.605 4.77,-3.605 3.145,0 5.037,2.654 5.295,5.366 10e-4,0.007 0.112,0.691 -0.192,1.913 z" />
      <path d="m 28.555,33.532 c 0.668,0.919 1.746,1.468 2.883,1.468 0.95,0 1.845,-0.371 2.518,-1.044 0.737,-0.737 1.114,-1.756 1.033,-2.797 -0.081,-1.041 -0.612,-1.99 -1.459,-2.606 L 20.586,19.19 c -0.396,-0.286 -0.945,-0.242 -1.293,0.104 -0.348,0.348 -0.391,0.896 -0.104,1.293 z" />
      <path d="m 30,0 c -0.553,0 -1,0.447 -1,1 v 13.292 c 0,0.553 0.447,1 1,1 0.553,0 1,-0.447 1,-1 V 2.018 C 45.979,2.546 58,14.896 58,30 c 0,2.619 -0.369,5.151 -1.045,7.557 0.533,0.755 0.977,1.586 1.312,2.48 C 59.386,36.896 60,33.52 60,30 60,13.458 46.542,0 30,0 Z" />
      <path d="M 30,58 C 14.561,58 2,45.439 2,30 2,22.54 4.9,15.521 10.166,10.236 10.557,9.844 10.555,9.212 10.164,8.822 9.772,8.434 9.14,8.434 8.75,8.824 3.107,14.486 0,22.007 0,30 c 0,16.542 13.458,30 30,30 2.691,0 5.299,-0.362 7.782,-1.03 L 35.909,57.367 C 34.003,57.778 32.027,58 30,58 Z" />
   </g>
</svg>