<?xml version="1.0" encoding="UTF-8" standalone="no"?>
<svg id="Layer_1" version="1.1" x="0" y="0" viewBox="0 0 50 50" xml:space="preserve" width="100%" height="100%" xmlns="http://www.w3.org/2000/svg">
   <g style="fill:none;stroke:#6481b7;stroke-width:1.5;stroke-linecap:round;stroke-linejoin:miter;stroke-miterlimit:4;stroke-dasharray:none;stroke-opacity:0.5">
      <path d="M 0.75687216,8.0314865 V 42.482425" />
      <path d="M 49.243128,8.0314865 V 42.482425" />
      <path d="M 49.24719,7.3062143 A 24.24719,6.5534046 0 0 1 25,13.859618 24.24719,6.5534046 0 0 1 0.7528097,7.3062143 24.24719,6.5534046 0 0 1 25,0.7528097 24.24719,6.5534046 0 0 1 49.24719,7.3062143 Z" />
      <path d="m 49.247261,42.696488 c -1e-6,3.617933 -10.85587,6.550848 -24.247261,6.550848 -13.391392,0 -24.24726035,-2.932915 -24.24726097,-6.550848" />
      <path d="M 49.247261,18.719902 C 49.24726,22.337835 38.391391,25.27075 25,25.27075 c -13.391392,0 -24.24726005,-2.932915 -24.24726067,-6.550848" />
      <path d="m 49.247261,30.648554 c -1e-6,3.617933 -10.85587,6.550848 -24.247261,6.550848 -13.391392,0 -24.24726005,-2.932915 -24.24726067,-6.550848" />
   </g>
</svg>