<?xml version="1.0" encoding="utf-8"?>
<svg version="1.1" x="0" y="0" width="100%" height="100%" xmlns="http://www.w3.org/2000/svg" xmlns:xlink="http://www.w3.org/1999/xlink" viewBox="0 0 50 50" class="c-icon">
  <path
     style="stroke-width:0.11159468"
     d="m 21.258809,3.89744 2.4774,-2.4774 c 1.04899,-1.04899 2.74523,-1.04899 3.78306,0 l 21.69401,21.68285 c 1.04899,1.04899 1.04899,2.74523 0,3.78306 l -21.69401,21.69401 c -1.04899,1.04899 -2.74523,1.04899 -3.78306,0 l -2.4774,-2.4774 c -1.06015,-1.06015 -1.03783,-2.78987 0.0446,-3.8277 L 34.750569,29.46379 H 2.6782487 c -1.4842099,0 -2.67826995,-1.19407 -2.67826995,-2.67827 v -3.57104 c 0,-1.4842 1.19406005,-2.67827 2.67826995,-2.67827 H 34.750569 L 21.303409,7.72514 c -1.09363,-1.03783 -1.11595,-2.76755 -0.0446,-3.8277 z" />
</svg>
