<?xml version="1.0" encoding="utf-8"?>
<svg version="1.1" x="0" y="0" width="100%" height="100%" xmlns="http://www.w3.org/2000/svg" xmlns:xlink="http://www.w3.org/1999/xlink" viewBox="0 0 50 50" class="c-icon">
  <path
     style="stroke-width:0.11159468"
     d="m 46.10256,21.258809 2.4774,2.4774 c 1.04899,1.04899 1.04899,2.74523 0,3.78306 l -21.68285,21.69401 c -1.04899,1.04899 -2.74523,1.04899 -3.78306,0 L 1.42004,27.519269 c -1.04899,-1.04899 -1.04899,-2.74523 0,-3.78306 l 2.4774,-2.4774 c 1.06015,-1.06015 2.78987,-1.03783 3.8277,0.0446 l 12.81107,13.44716 V 2.6782487 c 0,-1.4842099 1.19407,-2.67826995 2.67827,-2.67826995 h 3.57104 c 1.4842,0 2.67827,1.19406005 2.67827,2.67826995 V 34.750569 l 12.81107,-13.44716 c 1.03783,-1.09363 2.76755,-1.11595 3.8277,-0.0446 z" />
</svg>
