<?xml version="1.0" encoding="utf-8"?>
<svg version="1.1" x="0" y="0" width="100%" height="100%" xmlns="http://www.w3.org/2000/svg" xmlns:xlink="http://www.w3.org/1999/xlink" viewBox="0 0 50 50" class="c-icon">
  <path
     style="stroke-width:0.11159468"
     d="m 28.741191,46.10256 -2.4774,2.4774 c -1.04899,1.04899 -2.74523,1.04899 -3.78306,0 L 0.78672125,26.89711 c -1.04899,-1.04899 -1.04899,-2.74523 0,-3.78306 L 22.480731,1.42004 c 1.04899,-1.04899 2.74523,-1.04899 3.78306,0 l 2.4774,2.4774 c 1.06015,1.06015 1.03783,2.78987 -0.0446,3.8277 l -13.44716,12.81107 h 32.07232 c 1.48421,0 2.67827,1.19407 2.67827,2.67827 v 3.57104 c 0,1.4842 -1.19406,2.67827 -2.67827,2.67827 h -32.07232 l 13.44716,12.81107 c 1.09363,1.03783 1.11595,2.76755 0.0446,3.8277 z" />
</svg>
