<?xml version="1.0" encoding="utf-8"?>
<svg version="1.1" x="0" y="0" width="100%" height="100%" xmlns="http://www.w3.org/2000/svg" xmlns:xlink="http://www.w3.org/1999/xlink" viewBox="0 0 25 25" class="c-icon">
   <path d="M3.5,23.7,1.3,21.4A4.3,4.3,0,0,1,0,18.4a4.5,4.5,0,0,1,1.3-3.1l3.1-3.1a4.3,4.3,0,0,1,3.1-1.3,4.5,4.5,0,0,1,3.2,1.3l1.3-1.3a4.5,4.5,0,0,1-1.3-3.2A4.7,4.7,0,0,1,12,4.5l3.2-3.2A4.3,4.3,0,0,1,18.4,0a4.2,4.2,0,0,1,3.1,1.3l2.2,2.2A4.3,4.3,0,0,1,25,6.6a4.5,4.5,0,0,1-1.3,3.1l-3.1,3.1a4.3,4.3,0,0,1-3.1,1.3,4.5,4.5,0,0,1-3.2-1.3l-1.3,1.3a4.5,4.5,0,0,1,1.3,3.2A4.7,4.7,0,0,1,13,20.5L9.8,23.7A4.3,4.3,0,0,1,6.6,25,4.8,4.8,0,0,1,3.5,23.7ZM18.4,10.9l3.1-3.1a1.4,1.4,0,0,0,.4-1,1.6,1.6,0,0,0-.4-1L19.4,3.4a1.4,1.4,0,0,0-1-.4,1.5,1.5,0,0,0-1,.4L14.1,6.6a1.4,1.4,0,0,0-.4,1,1.5,1.5,0,0,0,.5,1.1c.5-.5.9-1.1,1.7-1.1a1.5,1.5,0,0,1,1.4,1.4c0,.8-.6,1.2-1.1,1.7a1.5,1.5,0,0,0,1.1.5A1.8,1.8,0,0,0,18.4,10.9ZM7.6,21.6l3.2-3.2a1.4,1.4,0,0,0,.4-1,1.5,1.5,0,0,0-.5-1.1c-.5.5-.9,1.1-1.7,1.1a1.5,1.5,0,0,1-1.4-1.4c0-.8.6-1.2,1.1-1.7a1.5,1.5,0,0,0-1.1-.5,1.6,1.6,0,0,0-1,.4L3.5,17.3a1.4,1.4,0,0,0-.4,1,1.3,1.3,0,0,0,.4,1l2.2,2.2a1.4,1.4,0,0,0,1,.4A1.4,1.4,0,0,0,7.6,21.6Z"/>
</svg>
