<?xml version="1.0" encoding="utf-8"?>
<svg version="1.1" x="0" y="0" width="100%" height="100%" xmlns="http://www.w3.org/2000/svg" xmlns:xlink="http://www.w3.org/1999/xlink" viewBox="0 0 50 50" class="c-icon">
   <path
      style="stroke-width:0.11160714"
      d="M 31.03362,25 49.60728,6.42522 c 0.52344,-0.52343 0.52344,-1.37165 0,-1.89397 -3.66071,-3.66071 -9.5971,-3.66071 -13.25781,0 L 23.45773,17.42411 20.68318,14.64955 C 21.1642,13.4308 21.42871,12.10379 21.42871,10.71429 21.42871,4.79688 16.63184,0 10.71443,0 4.79701,0 1.4e-4,4.79688 1.4e-4,10.71429 c 0,5.91741 4.79687,10.71428 10.71429,10.71428 0.50669,0 1.00334,-0.0357 1.49107,-0.10379 L 15.88072,25 12.2055,28.67522 C 11.71777,28.60712 11.22001,28.57143 10.71443,28.57143 4.79701,28.57143 1.4e-4,33.3683 1.4e-4,39.28571 1.4e-4,45.20313 4.79701,50 10.71443,50 c 5.91741,0 10.71428,-4.79687 10.71428,-10.71429 0,-1.3895 -0.26451,-2.71651 -0.74553,-3.93526 l 2.77455,-2.77456 12.89174,12.89286 c 3.66071,3.66071 9.5971,3.66071 13.25781,0 0.52344,-0.52232 0.52344,-1.37054 0,-1.89397 z M 10.71443,14.28571 c -1.96875,0 -3.57143,-1.60267 -3.57143,-3.57142 0,-1.96875 1.60268,-3.57143 3.57143,-3.57143 1.96875,0 3.57142,1.60268 3.57142,3.57143 0,1.96875 -1.60267,3.57142 -3.57142,3.57142 z m 0,28.57143 c -1.96875,0 -3.57143,-1.60268 -3.57143,-3.57143 0,-1.96875 1.60268,-3.57142 3.57143,-3.57142 1.96875,0 3.57142,1.60267 3.57142,3.57142 0,1.96875 -1.60267,3.57143 -3.57142,3.57143 z" />
</svg>
