<?xml version="1.0" encoding="utf-8"?>
<svg version="1.1" x="0" y="0" width="100%" height="100%" xmlns="http://www.w3.org/2000/svg" xmlns:xlink="http://www.w3.org/1999/xlink" viewBox="0 0 25 25" class="c-icon">
   <path d="M9.4,9.3h-1a.6.6,0,0,0-.6.6v9.3a.6.6,0,0,0,.6.6H9.9V9.9A.6.6,0,0,0,9.4,9.3Z"/>
   <path d="M17.7,9.3h-1a.6.6,0,0,0-.6.6v9.3a.6.6,0,0,0,.6.6h1a.6.6,0,0,0,.6-.6V9.9A.6.6,0,0,0,17.7,9.3Z"/>
   <path d="M23.9,4.2h-5L17.8,1.5A2.5,2.5,0,0,0,15.7,0H10.5A2.5,2.5,0,0,0,8.3,1.5L7.2,4.2h-5a.6.6,0,0,0-.6.6v1a.6.6,0,0,0,.6.6H3.7V21.8c0,1.8,1.2,3.2,2.6,3.2H19.8c1.4,0,2.6-1.5,2.6-3.4V6.3h2V4.7A.6.6,0,0,0,23.9,4.2Zm-8.3-2h.2l.8,1.8H9.5l.8-1.8.3-.2Zm4.2,20.7H6.3a1.4,1.4,0,0,1-.5-1.2V6.3H20.4V21.6A1.4,1.4,0,0,1,19.8,22.9Z"/>
   <path d="M13.6,9.3h-1a.6.6,0,0,0-.6.6v9.3a.6.6,0,0,0,.6.6h1a.6.6,0,0,0,.6-.6V9.9A.6.6,0,0,0,13.6,9.3Z"/>
</svg>
