<?xml version="1.0" encoding="utf-8"?>
<svg version="1.1" x="0" y="0" width="100%" height="100%" xmlns="http://www.w3.org/2000/svg" xmlns:xlink="http://www.w3.org/1999/xlink" viewBox="0 0 50 50" class="c-icon">
   <path transform="matrix(1 0 0 1 12.5 12.5)" d="M22.5,12.5A4.1,4.1,0,0,1,25,8.9a14.2,14.2,0,0,0-1-2.5,3.8,3.8,0,0,1-4-1.3,3.9,3.9,0,0,1-1-4.1,10.1,10.1,0,0,0-2.5-1,4.7,4.7,0,0,1-3.9,2.4A4.6,4.6,0,0,1,8.6,0L6.1,1a3.9,3.9,0,0,1-1,4.1,3.9,3.9,0,0,1-4,1.3A10.1,10.1,0,0,0,0,8.9a4.1,4.1,0,0,1,2.4,3.6A4.6,4.6,0,0,1,0,16.4a14.2,14.2,0,0,0,1,2.5,3.7,3.7,0,0,1,4,1,3.8,3.8,0,0,1,1,4,10.1,10.1,0,0,0,2.5,1,4.7,4.7,0,0,1,3.9-2.4A4.6,4.6,0,0,1,16.4,25l2.5-1a3.7,3.7,0,0,1,1-4,3.9,3.9,0,0,1,4-1.3,10.1,10.1,0,0,0,1-2.5A4.1,4.1,0,0,1,22.5,12.5ZM12.4,17.1a4.5,4.5,0,1,1,4.5-4.5A4.5,4.5,0,0,1,12.4,17.1Z"/>
</svg>
