<?xml version="1.0" encoding="utf-8"?>
<svg version="1.1" x="0" y="0" width="100%" height="100%" xmlns="http://www.w3.org/2000/svg" xmlns:xlink="http://www.w3.org/1999/xlink" viewBox="0 0 25 25" class="c-icon">
   <path d="M21.1,8.8l-1.7,1.6L15.1,6.4l1.7-1.6a1.2,1.2,0,0,1,.9-.4,1.4,1.4,0,0,1,.9.4l2.4,2.3a1.2,1.2,0,0,1,.4.9,1.1,1.1,0,0,1-.4.9M10.3,19.2,7,20.2H6.7c-.4.1-1.3.2-1.6-.1s-.3-1.2-.1-1.6v-.3l1-3.1L14.5,7l4.3,4.1ZM2.2,25h21a2,2,0,0,0,2-2V2a2,2,0,0,0-2-2H2.2a2,2,0,0,0-2,2V23A2,2,0,0,0,2.2,25Z"/>
</svg>
