<?xml version="1.0" encoding="utf-8"?>
<svg version="1.1" x="0" y="0" width="100%" height="100%" xmlns="http://www.w3.org/2000/svg" xmlns:xlink="http://www.w3.org/1999/xlink" viewBox="0 0 50 50" class="c-icon">
   <path
      style="stroke-width:0.08680555"
      d="m 34.94792,9.99566 7.82986,7.82986 c 0.32986,0.32986 0.32986,0.86806 0,1.19792 l -18.95834,18.95833 -8.05555,0.8941 C 14.6875,38.9974 13.77604,38.08594 13.89757,37.00955 L 14.79167,28.95399 33.75,9.99566 c 0.32986,-0.32986 0.86806,-0.32986 1.19792,0 z M 49.01042,8.00781 44.77431,3.7717 c -1.31945,-1.31944 -3.46355,-1.31944 -4.79167,0 l -3.07292,3.07292 c -0.32986,0.32986 -0.32986,0.86805 0,1.19791 l 7.82986,7.82987 c 0.32986,0.32986 0.86806,0.32986 1.19792,0 l 3.07292,-3.07292 c 1.31944,-1.32813 1.31944,-3.47222 0,-4.79167 z M 33.33333,32.82552 v 8.83681 H 5.55556 V 13.88455 h 19.94791 c 0.27778,0 0.5382,-0.11285 0.73785,-0.30382 l 3.47222,-3.47222 C 30.37326,9.44878 29.90451,8.32899 28.97569,8.32899 H 4.16667 C 1.86632,8.32899 0,10.19531 0,12.49566 v 30.55556 c 0,2.30034 1.86632,4.16666 4.16667,4.16666 h 30.55555 c 2.30035,0 4.16667,-1.86632 4.16667,-4.16666 V 29.3533 c 0,-0.92882 -1.11979,-1.38889 -1.77952,-0.73785 l -3.47222,3.47222 c -0.19097,0.19966 -0.30382,0.46007 -0.30382,0.73785 z" />
</svg>
