<?xml version="1.0" encoding="utf-8"?>
<svg version="1.1" x="0" y="0" width="100%" height="100%" xmlns="http://www.w3.org/2000/svg" xmlns:xlink="http://www.w3.org/1999/xlink" viewBox="0 0 50 50" class="c-icon">
   <path
      style="stroke-width:0.09765625"
      d="M 1.5625,28.125 C 0.69922,28.125 0,28.82422 0,29.6875 v 3.125 c 0,0.86328 0.69922,1.5625 1.5625,1.5625 H 12.5 v -6.25 z M 34.375,13.28125 V 0 H 14.84375 C 13.54492,0 12.5,1.04492 12.5,2.34375 V 28.125 h 12.49902 v -6.36523 c 0,-1.39454 1.68848,-2.09082 2.67188,-1.10059 l 9.3457,9.41699 c 0.64453,0.64942 0.64453,1.69824 0,2.34766 l -9.3457,9.41601 c -0.98242,0.99024 -2.67188,0.29395 -2.67188,-1.10058 V 34.375 H 12.5 V 47.65625 C 12.5,48.95508 13.54492,50 14.84375,50 h 32.8125 C 48.95508,50 50,48.95508 50,47.65625 V 15.625 H 36.71875 c -1.28906,0 -2.34375,-1.05469 -2.34375,-2.34375 z M 49.31641,10.25391 39.75586,0.68359 C 39.31641,0.24414 38.7207,0 38.0957,0 H 37.5 V 12.5 H 50 v -0.5957 c 0,-0.61524 -0.24414,-1.21094 -0.68359,-1.65039 z" />
</svg>
