<?xml version="1.0" encoding="utf-8"?>
<svg version="1.1" x="0" y="0" width="100%" height="100%" xmlns="http://www.w3.org/2000/svg" xmlns:xlink="http://www.w3.org/1999/xlink" viewBox="0 0 50 50" class="c-icon">
  <path
     style="stroke-width:0.11160711"
     d="m 49.181568,16.75324 0.79721,-4.46429 c 0.14654,-0.82087 -0.4846,-1.57466 -1.31841,-1.57466 h -8.34933 l 1.63203,-9.13962 C 42.089608,0.75379 41.458468,0 40.624658,0 h -4.53482 a 1.3392852,1.3392857 0 0 0 -1.31842,1.10391 l -1.71618,9.61038 h -11.00836 l 1.63203,-9.13962 C 23.825558,0.75379 23.194418,0 22.360488,0 h -4.53482 a 1.3392852,1.3392857 0 0 0 -1.31841,1.10391 l -1.71618,9.61038 H 5.9633976 a 1.3392852,1.3392857 0 0 0 -1.31841,1.1039 l -0.79721,4.46429 c -0.14654,0.82087 0.4846,1.57466 1.31841,1.57466 h 8.3493304 l -2.551,14.28572 H 2.1368376 a 1.3392852,1.3392857 0 0 0 -1.31841002,1.1039 l -0.79721,4.46429 c -0.14654,0.82087 0.4846,1.57466 1.31841002,1.57466 h 8.34933 l -1.63203,9.13962 C 7.9103876,49.24621 8.5415276,50 9.3753376,50 h 4.5348204 a 1.3392852,1.3392857 0 0 0 1.31842,-1.10391 l 1.71629,-9.61038 h 11.00825 l -1.63203,9.13962 C 26.174438,49.24621 26.805578,50 27.639508,50 h 4.53482 a 1.3392852,1.3392857 0 0 0 1.31841,-1.10391 l 1.71618,-9.61038 h 8.82768 a 1.3392852,1.3392857 0 0 0 1.31841,-1.1039 l 0.79721,-4.46429 c 0.14654,-0.82087 -0.4846,-1.57466 -1.31841,-1.57466 h -8.34933 l 2.551,-14.28572 h 8.82768 a 1.3392852,1.3392857 0 0 0 1.31841,-1.1039 z m -19.95289,15.38962 h -11.00825 l 2.551,-14.28572 h 11.00825 z" />
</svg>
