<?xml version="1.0" encoding="utf-8"?>
<svg version="1.1" x="0" y="0" width="100%" height="100%" xmlns="http://www.w3.org/2000/svg" xmlns:xlink="http://www.w3.org/1999/xlink" viewBox="0 0 25 25" class="c-icon">
   <path d="M18.3,15.8a3.6,3.6,0,0,0-2.1.7L10.1,13a1.9,1.9,0,0,0,.1-.5,1.7,1.7,0,0,0-.1-.5l6.1-3.5a3.6,3.6,0,0,0,2.1.7,3.4,3.4,0,0,0,3.5-3.3,3.5,3.5,0,0,0-7,0,1.7,1.7,0,0,0,.1.5L8.8,9.8a3.6,3.6,0,0,0-2.1-.7,3.4,3.4,0,0,0-3.5,3.3,3.4,3.4,0,0,0,3.5,3.3,3.6,3.6,0,0,0,2.1-.7l6.1,3.5a1.9,1.9,0,0,0-.1.5,3.5,3.5,0,1,0,3.5-3.3Z"/>
</svg>
