<?xml version="1.0" encoding="utf-8"?>
<svg version="1.1" x="0" y="0" width="100%" height="100%" xmlns="http://www.w3.org/2000/svg" xmlns:xlink="http://www.w3.org/1999/xlink" viewBox="0 0 25 25" class="c-icon">
   <path d="M13.3,6.2a3.5,3.5,0,0,0-2.2-.9H1.6V25H18.1V12.3a3.8,3.8,0,0,0-.9-2.2Zm-1.7,5.6V7.4l.3.2,3.9,3.9.2.3H11.6ZM9.7,13.7h6.4v9.5H3.5V7.2H9.7Z"/>
   <path d="M22.5,4.9,18.6.9A3.5,3.5,0,0,0,16.4,0H7V4.4H8.8V1.9h6.2V8.3h6.4v9.5H19.3v1.9h4V7A3.1,3.1,0,0,0,22.5,4.9ZM16.9,6.5V2l.3.2,3.9,3.9.2.3Z"/>
</svg>
