<?xml version="1.0" encoding="utf-8"?>
<svg version="1.1" x="0" y="0" width="100%" height="100%" xmlns="http://www.w3.org/2000/svg" xmlns:xlink="http://www.w3.org/1999/xlink" viewBox="0 0 50 50" class="c-icon">
   <path
      style="stroke-width:0.09765625"
      d="M 43.75,18.75 V 7.54395 C 43.75,6.71484 43.4209,5.9209 42.83496,5.33398 L 38.41504,0.91504 C 37.8291,0.3291 37.03418,0 36.20508,0 H 9.375 C 7.64941,0 6.25,1.39941 6.25,3.125 V 18.75 C 2.79785,18.75 0,21.54785 0,25 V 35.9375 C 0,36.80078 0.69922,37.5 1.5625,37.5 H 6.25 v 9.375 C 6.25,48.60059 7.64941,50 9.375,50 h 31.25 c 1.72559,0 3.125,-1.39941 3.125,-3.125 V 37.5 h 4.6875 C 49.30078,37.5 50,36.80078 50,35.9375 V 25 c 0,-3.45215 -2.79785,-6.25 -6.25,-6.25 z m -6.25,25 h -25 v -9.375 h 25 z m 0,-21.875 h -25 V 6.25 h 18.75 v 4.6875 c 0,0.86328 0.69922,1.5625 1.5625,1.5625 H 37.5 Z m 4.6875,7.03125 c -1.29395,0 -2.34375,-1.0498 -2.34375,-2.34375 0,-1.29492 1.0498,-2.34375 2.34375,-2.34375 1.29395,0 2.34375,1.04883 2.34375,2.34375 0,1.29395 -1.0498,2.34375 -2.34375,2.34375 z" />
</svg>
