<?xml version="1.0" encoding="utf-8"?>
<svg version="1.1" x="0" y="0" width="100%" height="100%" xmlns="http://www.w3.org/2000/svg" xmlns:xlink="http://www.w3.org/1999/xlink" viewBox="0 0 25 25" class="c-icon">
   <path d="M24.4,14.7H22.3l.2-.3h0l2.3-4h0a.8.8,0,0,0-.7-1.3H19.5a.8.8,0,0,0-.7,1.3l2.3,4,.2.3H3.6l.2-.3h0l2.3-4a.8.8,0,0,0-.7-1.3H.8a.8.8,0,0,0-.7,1.3h0l2.3,4,.2.3H.8a.6.6,0,1,0,0,1.1H24.4a.6.6,0,1,0,0-1.1ZM20,10.3h3.7l-1.9,3.2ZM2.9,13.9h0ZM1.3,10.3H5L3.2,13.5Z"/>
   <polygon points="6.2 10.4 6.2 10.4 6.2 10.4 6.2 10.4"/>
</svg>
