<?xml version="1.0" encoding="utf-8"?>
<svg version="1.1" x="0" y="0" width="100%" height="100%" xmlns="http://www.w3.org/2000/svg" xmlns:xlink="http://www.w3.org/1999/xlink" viewBox="0 0 50 50" class="c-icon">
   <path
      style="stroke-width:0.11160714"
      d="M 48.43092,10.93092 39.06908,1.56908 A 5.3571429,5.3571429 0 0 0 35.28103,0 H 5.35714 C 2.39844,0 0,2.39844 0,5.35714 V 44.64286 C 0,47.60156 2.39844,50 5.35714,50 H 44.64286 C 47.60156,50 50,47.60156 50,44.64286 V 14.71897 A 5.3571429,5.3571429 0 0 0 48.43092,10.93092 Z M 25,42.85714 c -3.94487,0 -7.14286,-3.19799 -7.14286,-7.14285 0,-3.94487 3.19799,-7.14286 7.14286,-7.14286 3.94487,0 7.14286,3.19799 7.14286,7.14286 0,3.94486 -3.19799,7.14285 -7.14286,7.14285 z M 35.71429,8.87054 v 11.21875 c 0,0.73962 -0.59967,1.33928 -1.33929,1.33928 H 8.48214 c -0.73962,0 -1.33928,-0.59966 -1.33928,-1.33928 V 8.48214 c 0,-0.73962 0.59966,-1.33928 1.33928,-1.33928 h 25.50447 c 0.35524,0 0.69587,0.14107 0.94698,0.3923 l 0.3884,0.38839 a 1.3388393,1.3388393 0 0 1 0.3923,0.94699 z" />
</svg>
