<?xml version="1.0" encoding="utf-8"?>
<!-- Generator: Adobe Illustrator 22.0.1, SVG Export Plug-In . SVG Version: 6.00 Build 0)  -->
<svg version="1.1" id="Layer_1" xmlns="http://www.w3.org/2000/svg" xmlns:xlink="http://www.w3.org/1999/xlink" x="0px" y="0px"
	 viewBox="0 0 25 25" style="enable-background:new 0 0 25 25;" xml:space="preserve" class="c-icon">
<g>
	<path class="st47" d="M21.9,4.8L13.6,13c-0.2,0.2-0.2,0.5,0,0.7c0.1,0.1,0.2,0.1,0.3,0.1s0.2,0,0.3-0.1l8.3-8.3
		c0.2-0.2,0.2-0.5,0-0.7S22.1,4.6,21.9,4.8z"/>
	<path class="st3" d="M23.9,4.3L21,1.4c-0.4-0.4-1-0.4-1.4,0l-9.4,9.4c-0.4,0.4-0.4,1,0,1.4l0.9,0.9l-5.5,5.5l-1.3-0.2l-2.9,4.3
		L2.5,24l4.3-2.9l-0.2-1.3l5.5-5.5l0.9,0.9c0.4,0.4,1,0.4,1.4,0l9.4-9.4C24.3,5.3,24.3,4.7,23.9,4.3z M12.2,11.6
		c-0.1,0.1-0.2,0.1-0.3,0.1s-0.2,0-0.3-0.1c-0.2-0.2-0.2-0.5,0-0.7l8.3-8.3c0.2-0.2,0.5-0.2,0.7,0s0.2,0.5,0,0.7L12.2,11.6z
		 M22.6,5.4l-8.3,8.3c-0.1,0.1-0.2,0.1-0.3,0.1s-0.2,0-0.3-0.1c-0.2-0.2-0.2-0.5,0-0.7l8.3-8.3c0.2-0.2,0.5-0.2,0.7,0
		S22.8,5.3,22.6,5.4z"/>
</g>
</svg>
