<?xml version="1.0" encoding="utf-8"?>
<svg version="1.1" x="0" y="0" width="100%" height="100%" xmlns="http://www.w3.org/2000/svg" xmlns:xlink="http://www.w3.org/1999/xlink" viewBox="0 0 50 50" class="c-icon">
  <path
    style="stroke-width:0.09765505"
    d="M 49.32001,43.2282 39.58297,33.49282 C 39.14348,33.05341 38.54774,32.8093 37.92269,32.8093 H 36.33078 C 39.02629,29.36237 40.62797,25.02685 40.62797,20.31052 40.62797,9.09091 31.5355,0 20.31398,0 9.09246,0 0,9.09091 0,20.31052 c 0,11.2196 9.09246,20.31051 20.31398,20.31051 4.71714,0 9.0534,-1.6014 12.50092,-4.29645 v 1.59164 c 0,0.62494 0.24415,1.22058 0.68364,1.65999 l 9.73704,9.73538 c 0.91804,0.91788 2.40252,0.91788 3.31079,0 l 2.76387,-2.7634 c 0.91804,-0.91788 0.91804,-2.40211 0.01,-3.31999 z M 20.31398,32.8093 c -6.9048,0 -12.50091,-5.5854 -12.50091,-12.49878 0,-6.90363 5.58634,-12.49878 12.50091,-12.49878 6.9048,0 12.50092,5.58539 12.50092,12.49878 0,6.90362 -5.58635,12.49878 -12.50092,12.49878 z" />
</svg>
