<?xml version="1.0" encoding="utf-8"?>
<svg version="1.1" x="0" y="0" width="100%" height="100%" xmlns="http://www.w3.org/2000/svg" xmlns:xlink="http://www.w3.org/1999/xlink" viewBox="0 0 50 50" class="c-icon">
   <path
      style="stroke-width:0.09764671"
      d="m 29.68826,18.74817 v 3.12469 c 0,0.64447 -0.52729,1.17176 -1.17176,1.17176 h -5.46821 v 5.46822 c 0,0.64447 -0.5273,1.17176 -1.17176,1.17176 h -3.1247 c -0.64447,0 -1.17176,-0.52729 -1.17176,-1.17176 v -5.46822 h -5.46821 c -0.64447,0 -1.17177,-0.52729 -1.17177,-1.17176 v -3.12469 c 0,-0.64447 0.5273,-1.17176 1.17177,-1.17176 h 5.46821 v -5.46822 c 0,-0.64446 0.52729,-1.17176 1.17176,-1.17176 h 3.1247 c 0.64446,0 1.17176,0.5273 1.17176,1.17176 v 5.46822 h 5.46821 c 0.64447,0 1.17176,0.52729 1.17176,1.17176 z m 19.62699,27.80002 -2.7634,2.7634 c -0.91788,0.91788 -2.40211,0.91788 -3.31022,0 L 33.49648,39.57621 C 33.05707,39.1368 32.81296,38.54116 32.81296,37.91622 V 36.32458 C 29.36603,39.01963 25.03051,40.62103 20.31418,40.62103 9.09457,40.62103 0.00366,31.53012 0.00366,20.31052 0.00366,9.09091 9.09457,0 20.31418,0 c 11.21961,0 20.31051,9.09091 20.31051,20.31052 0,4.71633 -1.6014,9.05185 -4.29645,12.49878 h 1.59164 c 0.62494,0 1.22058,0.24411 1.65999,0.68352 l 9.73538,9.73538 c 0.90812,0.91788 0.90812,2.40211 0,3.31999 z M 33.59413,20.31052 c 0,-7.34304 -5.93692,-13.27996 -13.27995,-13.27996 -7.34303,0 -13.27995,5.93692 -13.27995,13.27996 0,7.34303 5.93692,13.27995 13.27995,13.27995 7.34303,0 13.27995,-5.93692 13.27995,-13.27995 z" />
</svg>
