<?xml version="1.0" encoding="utf-8"?>
<svg version="1.1" x="0" y="0" width="100%" height="100%" xmlns="http://www.w3.org/2000/svg" xmlns:xlink="http://www.w3.org/1999/xlink" viewBox="0 0 50 50" class="c-icon">
   <path
      style="stroke-width:0.09764671"
      d="m 29.688264,18.748163 v 3.124702 c 0,0.644466 -0.527293,1.171758 -1.171758,1.171758 H 12.111859 c -0.644475,0 -1.171768,-0.527292 -1.171768,-1.171758 v -3.124702 c 0,-0.644466 0.527293,-1.171758 1.171768,-1.171758 h 16.404647 c 0.644465,0 1.171758,0.527292 1.171758,1.171758 z m 19.626985,27.800027 -2.763395,2.763395 c -0.917886,0.917887 -2.402109,0.917887 -3.310225,0 l -9.745143,-9.735372 c -0.439415,-0.439416 -0.68353,-1.03506 -0.68353,-1.659997 v -1.591637 c -3.446925,2.695045 -7.782439,4.29645 -12.498779,4.29645 -11.2196055,0 -20.3105137,-9.090908 -20.3105137,-20.310514 C 0.0036633,9.0909081 9.0945715,-6.2500007e-8 20.314177,-6.2500007e-8 31.533784,-6.2500007e-8 40.624692,9.0909081 40.624692,20.310515 c 0,4.716339 -1.601405,9.051854 -4.296451,12.498779 h 1.591637 c 0.624939,0 1.220591,0.244113 1.659997,0.683529 l 9.735374,9.735373 c 0.908117,0.917876 0.908117,2.402109 0,3.319994 z M 33.594132,20.310514 c 0,-7.343034 -5.93692,-13.2799541 -13.279955,-13.2799541 -7.343034,0 -13.2799537,5.9369201 -13.2799537,13.2799541 0,7.343034 5.9369197,13.279954 13.2799537,13.279954 7.343035,0 13.279955,-5.93692 13.279955,-13.279954 z" />
</svg>
