<?xml version="1.0" encoding="utf-8"?>
<svg version="1.1" x="0" y="0" width="100%" height="100%" xmlns="http://www.w3.org/2000/svg" xmlns:xlink="http://www.w3.org/1999/xlink" viewBox="0 0 50 50" class="c-icon">
  <path
     style="stroke-width:0.11159468"
     d="m 3.90302,28.741191 -2.4774,-2.4774 c -1.04899,-1.04899 -1.04899,-2.74523 0,-3.78306 L 23.10847,0.78672125 c 1.04899,-1.04899 2.74523,-1.04899 3.78306,0 L 48.57438,22.469571 c 1.04899,1.04899 1.04899,2.74523 0,3.78306 l -2.4774,2.4774 c -1.06015,1.06015 -2.78987,1.03783 -3.8277,-0.0446 l -12.79991,-13.436 v 32.07232 c 0,1.48421 -1.19407,2.67827 -2.67828,2.67827 h -3.57103 c -1.4842,0 -2.67827,-1.19406 -2.67827,-2.67827 V 15.249431 L 7.73072,28.696591 c -1.03783,1.09363 -2.76755,1.11595 -3.8277,0.0446 z" />
</svg>
