<?xml version="1.0" encoding="utf-8"?>
<svg version="1.1" x="0" y="0" width="100%" height="100%" xmlns="http://www.w3.org/2000/svg" xmlns:xlink="http://www.w3.org/1999/xlink" viewBox="0 0 50 50" class="c-icon">
   <path
      d="M 50,25 C 50,38.807156 38.807156,50 25,50 11.192844,50 -3.0833334e-7,38.807156 -3.0833334e-7,25 -3.0833334e-7,11.192844 11.192844,1e-7 25,1e-7 38.807156,1e-7 50,11.192844 50,25 Z M 22.108271,38.237302 40.656656,19.688906 c 0.629834,-0.629833 0.629834,-1.651104 0,-2.280937 l -2.280948,-2.280948 c -0.629843,-0.629948 -1.651114,-0.629948 -2.281052,0 L 20.96774,30.253833 13.905344,23.191427 c -0.629844,-0.629833 -1.651115,-0.629833 -2.281052,0 l -2.2809481,2.280948 c -0.6298333,0.629844 -0.6298333,1.651115 0,2.280948 L 19.827219,38.237198 c 0.629937,0.629937 1.651104,0.629937 2.281052,1.04e-4 z"
      style="stroke-width:0.10080645" />
</svg>
