<?xml version="1.0" encoding="utf-8"?>
<svg version="1.1" x="0" y="0" width="100%" height="100%" xmlns="http://www.w3.org/2000/svg" xmlns:xlink="http://www.w3.org/1999/xlink" viewBox="0 0 50 50" class="c-icon">
   <path
      style="stroke-width:0.09765625"
      d="m 34.375,43.75 v 3.90625 C 34.375,48.95068 33.32568,50 32.03125,50 H 5.46875 C 4.17432,50 3.125,48.95068 3.125,47.65625 V 11.71875 C 3.125,10.42432 4.17432,9.375 5.46875,9.375 H 12.5 v 28.90625 c 0,3.01553 2.45322,5.46875 5.46875,5.46875 z m 0,-33.59375 V 0 H 17.96875 C 16.67432,0 15.625,1.04932 15.625,2.34375 v 35.9375 c 0,1.29443 1.04932,2.34375 2.34375,2.34375 h 26.5625 c 1.29443,0 2.34375,-1.04932 2.34375,-2.34375 V 12.5 H 36.71875 C 35.42969,12.5 34.375,11.44531 34.375,10.15625 Z M 46.18857,7.12607 39.74893,0.68643 A 2.34375,2.34375 0 0 0 38.0917,0 H 37.5 v 9.375 h 9.375 V 8.7833 A 2.34375,2.34375 0 0 0 46.18857,7.12607 Z" />
</svg>
