<?xml version="1.0" encoding="utf-8"?>
<svg version="1.1" x="0" y="0" width="100%" height="100%" xmlns="http://www.w3.org/2000/svg" xmlns:xlink="http://www.w3.org/1999/xlink" viewBox="0 0 25 25" class="c-icon">
   <path d="M4.1,6a1.7,1.7,0,0,0,1.2.5h0a1.2,1.2,0,0,0,.8-.3,1.5,1.5,0,0,0-.2-2L5.8,4l-.7-.7a1.5,1.5,0,0,0-2-.2,1.5,1.5,0,0,0,.2,2Z"/>
   <path d="M12.5,4.3a1.4,1.4,0,0,0,1.3-1.6V1.5A1.5,1.5,0,0,0,12.5,0a1.4,1.4,0,0,0-1.3,1.6V2.7A1.4,1.4,0,0,0,12.5,4.3Z"/>
   <path d="M19.7,6.5A1.7,1.7,0,0,0,20.8,6l.8-.8a1.4,1.4,0,0,0,.2-2,1.5,1.5,0,0,0-2,.2l-.8.8a1.8,1.8,0,0,0-.5,1,1.1,1.1,0,0,0,.3,1A1.3,1.3,0,0,0,19.7,6.5Z"/>
   <path d="M4.3,12.5a1.4,1.4,0,0,0-1.5-1.3H1.6A1.5,1.5,0,0,0,0,12.5a1.4,1.4,0,0,0,1.6,1.3H2.8A1.4,1.4,0,0,0,4.3,12.5Z"/>
   <path d="M12.5,5.5a7,7,0,1,0,7,7A7,7,0,0,0,12.5,5.5Zm0,12.2a5.2,5.2,0,1,1,5.2-5.2A5.2,5.2,0,0,1,12.5,17.7Z"/>
   <path d="M20.8,19a1.5,1.5,0,0,0-2-.2,1.2,1.2,0,0,0-.4.8,1.7,1.7,0,0,0,.5,1.2l.8.8a1.7,1.7,0,0,0,1.2.5,1.2,1.2,0,0,0,.8-.3,1.2,1.2,0,0,0,.4-.8,1.7,1.7,0,0,0-.5-1.2A3.2,3.2,0,0,0,20.8,19Z"/>
   <path d="M4.1,19l-.8.8A1.7,1.7,0,0,0,2.8,21a1.2,1.2,0,0,0,.3.8,1.2,1.2,0,0,0,.8.3,1.7,1.7,0,0,0,1.2-.5l.8-.8a1.4,1.4,0,0,0,.2-2C5.7,18.3,4.8,18.4,4.1,19Z"/>
   <path d="M23.4,11.2H22.2a1.5,1.5,0,0,0-1.6,1.3,1.4,1.4,0,0,0,1.6,1.3h1.2A1.5,1.5,0,0,0,25,12.5,1.5,1.5,0,0,0,23.4,11.2Z"/>
   <path d="M12.5,20.7a1.4,1.4,0,0,0-1.3,1.6v1.2A1.5,1.5,0,0,0,12.5,25a1.4,1.4,0,0,0,1.3-1.6V22.3A1.4,1.4,0,0,0,12.5,20.7Z"/>
</svg>
