<?xml version="1.0" encoding="UTF-8" standalone="no"?>
<svg xmlns:svg="http://www.w3.org/2000/svg" xmlns="http://www.w3.org/2000/svg" version="1.1" viewBox="0 0 50 50" xml:space="preserve"  class="c-icon">
	<path style="stroke-width:0.05713744" d="m 44.683077,34.888234 c -1.656757,0 -2.999716,1.343015 -2.999716,2.999716 v 3.112904 c 0,1.654072 -1.345758,2.999716 -2.999715,2.999716 H 11.316354 c -1.6540713,0 -2.9997151,-1.345644 -2.9997151,-2.999716 V 37.88795 c 0,-1.656701 -1.3430156,-2.999716 -2.9997156,-2.999716 -1.6567001,0 -2.9997156,1.343015 -2.9997156,2.999716 v 3.112904 c 0,4.962159 4.0369887,8.999147 8.9991463,8.999147 h 27.367292 c 4.962158,0 8.999146,-4.036988 8.999146,-8.999147 V 37.88795 c 0,-1.656758 -1.343072,-2.999716 -2.999715,-2.999716 z" /><path style="stroke-width:0.05713744" id="path945" d="m 24.999971,-1.20376e-6 c -1.6567,0 -2.999715,1.34301550376 -2.999715,2.99971560376 V 30.49785 l -2.410743,-2.382003 c -1.17846,-1.164403 -3.077651,-1.153033 -4.242169,0.02543 -1.164404,1.178459 -1.153034,3.077708 0.02543,4.242112 l 7.614821,7.524086 c 0.561661,0.554976 1.319246,0.865918 2.108257,0.865918 0.006,0 0.01206,0 0.01806,-5.7e-5 0.795468,-0.0047 1.556653,-0.325398 2.115743,-0.891344 l 7.422839,-7.512373 c 1.164404,-1.17846 1.153033,-3.077766 -0.02543,-4.24217 -1.17846,-1.164404 -3.077709,-1.153033 -4.242112,0.02543 l -2.385374,2.414056 V 2.9997144 C 27.999744,1.3430143 26.656672,-1.20376e-6 24.999971,-1.20376e-6 Z" />
</svg>