<?xml version="1.0" encoding="utf-8"?>
<svg version="1.1" x="0" y="0" width="100%" height="100%" xmlns="http://www.w3.org/2000/svg" xmlns:xlink="http://www.w3.org/1999/xlink" viewBox="0 0 50 50" class="c-icon">
   <path
      style="stroke-width:0.08680555"
      d="m 33.33333,13.35938 c 0,-0.54688 -0.21701,-1.07639 -0.60764,-1.46702 L 24.22743,3.38542 C 23.83681,2.99479 23.30729,2.77778 22.75174,2.77778 H 22.22222 V 13.88889 H 33.33333 Z M 16.66667,31.94444 v -2.77777 c 0,-0.76736 0.62152,-1.38889 1.38889,-1.38889 H 33.33333 V 16.66667 H 21.52778 c -1.14584,0 -2.08334,-0.9375 -2.08334,-2.08334 V 2.77778 H 2.08333 C 0.92882,2.77778 0,3.7066 0,4.86111 v 40.27778 c 0,1.15451 0.92882,2.08333 2.08333,2.08333 H 31.25 c 1.15451,0 2.08333,-0.92882 2.08333,-2.08333 V 33.33333 H 18.05556 c -0.76737,0 -1.38889,-0.62152 -1.38889,-1.38889 z m 32.90364,-2.43229 -8.30729,-8.37066 c -0.87326,-0.88021 -2.375,-0.26128 -2.375,0.9783 v 5.65799 h -5.55469 v 5.55555 h 5.55469 v 5.65799 c 0,1.23958 1.50087,1.85851 2.375,0.9783 l 8.30729,-8.36979 c 0.57292,-0.57813 0.57292,-1.51042 0,-2.08768 z" />
</svg>
