<?xml version="1.0" encoding="utf-8"?>
<svg version="1.1" x="0" y="0" width="100%" height="100%" xmlns="http://www.w3.org/2000/svg" xmlns:xlink="http://www.w3.org/1999/xlink" viewBox="0 0 25 25" class="c-icon">
   <path d="M12,19.8a1.2,1.2,0,1,1,1.2-1.2A1.2,1.2,0,0,1,12,19.8Zm1.9-7.4a3.9,3.9,0,0,0-1.1,2.9v.5H11.3v-.5a4.5,4.5,0,0,1,1.2-3.4,4.4,4.4,0,0,0,1.4-2.7c0-1-.6-1.7-1.9-1.7A3.5,3.5,0,0,0,10,8L9.5,6.8A5.2,5.2,0,0,1,12.3,6c2.3,0,3.3,1.4,3.3,2.9S14.9,11.2,13.9,12.4Z"/><path d="M12.5,1A11.5,11.5,0,1,1,1,12.5,11.5,11.5,0,0,1,12.5,1m0-1A12.5,12.5,0,1,0,25,12.5,12.5,12.5,0,0,0,12.5,0Z"/>
</svg>
