<?xml version="1.0" encoding="utf-8"?>
<svg version="1.1" x="0" y="0" width="100%" height="100%" xmlns="http://www.w3.org/2000/svg" xmlns:xlink="http://www.w3.org/1999/xlink" viewBox="0 0 50 50" class="c-icon">
  <path
     style="stroke-width:0.08681445"
     d="m 42.360308,29.907194 v 12.44051 c 0,1.15463 -0.92892,2.08354 -2.08355,2.08354 h -10.07048 c -0.57297,0 -1.04177,-0.46879 -1.04177,-1.04177 v -9.72322 c 0,-0.57297 -0.4688,-1.04177 -1.04177,-1.04177 h -6.25064 c -0.57298,0 -1.04178,0.4688 -1.04178,1.04177 v 9.72322 c 0,0.57298 -0.4688,1.04177 -1.04177,1.04177 H 9.7180682 c -1.15463,0 -2.08354,-0.92891 -2.08354,-2.08354 v -12.44051 c 0,-0.31254 0.1389,-0.6077 0.38198,-0.80738 L 24.337628,15.660944 c 0.38198,-0.31254 0.93759,-0.31254 1.32826,0 l 16.32111,13.43887 c 0.2344,0.19968 0.37331,0.49484 0.37331,0.80738 z m 7.25768,-5.287 -7.25768,-5.98152 V 6.6148738 c 0,-0.57298 -0.4688,-1.04177 -1.04178,-1.04177 h -4.86161 c -0.57297,0 -1.04177,0.46879 -1.04177,1.04177 v 6.3027302 l -7.76989,-6.3982303 c -1.53662,-1.26749 -3.75907,-1.26749 -5.29568,0 L 0.37683815,24.620194 c -0.44276,0.36462 -0.50353,1.02441 -0.1389,1.46716 l 2.21376005,2.69125 c 0.36462,0.44275 1.02441,0.50352 1.46717,0.1389 L 24.337628,12.101544 c 0.38198,-0.31253 0.93759,-0.31253 1.32826,0 l 20.41876,16.81596 c 0.44275,0.36462 1.10254,0.30385 1.46716,-0.1389 l 2.21377,-2.69125 c 0.36462,-0.45143 0.29517,-1.10254 -0.14759,-1.46716 z" />
</svg>
