<?xml version="1.0" encoding="utf-8"?>
<svg version="1.1" x="0" y="0" width="100%" height="100%" xmlns="http://www.w3.org/2000/svg" xmlns:xlink="http://www.w3.org/1999/xlink" viewBox="0 0 25 25" class="c-icon">
   <path d="M12.5,1A11.5,11.5,0,1,1,1,12.5,11.5,11.5,0,0,1,12.5,1m0-1A12.5,12.5,0,1,0,25,12.5,12.5,12.5,0,0,0,12.5,0Z"/>
   <path d="M12.7,6.4a1.2,1.2,0,0,1,1.3,1.3A1.3,1.3,0,0,1,12.6,9a1.2,1.2,0,0,1-1.3-1.3A1.3,1.3,0,0,1,12.7,6.4Z"/>
   <path d="M14.8,17.8H10.5a.5.5,0,0,1,0-.6h.3c.6-.1.7-.2.7-1.5V13c0-.7,0-.9-.3-1.1l-.2-.2a.4.4,0,0,1,0-.5,13.8,13.8,0,0,0,2.6-1l.3.2c0,.5-.1,1.3-.1,2.1v3.3c0,1.2.1,1.4.7,1.5h.3A.5.5,0,0,1,14.8,17.8Z"/>
</svg>
