<?xml version="1.0" encoding="utf-8"?>
<svg version="1.1" x="0" y="0" width="100%" height="100%" xmlns="http://www.w3.org/2000/svg" xmlns:xlink="http://www.w3.org/1999/xlink" viewBox="0 0 25 25" class="c-icon">
   <path d="M22.3,16.1V11.6H13.4V8.9h1.7a1,1,0,0,0,1-1V2.7a1,1,0,0,0-1-1H9.9a1,1,0,0,0-1,1V7.9a1,1,0,0,0,1,1h1.7v2.7H2.7v4.5H1a1,1,0,0,0-1,1v5.2a1,1,0,0,0,1,1H6.2a1,1,0,0,0,1-1V17.1a1,1,0,0,0-1-1H4.5V13.4h7.1v2.7H9.9a1,1,0,0,0-1,1v5.2a1,1,0,0,0,1,1h5.2a1,1,0,0,0,1-1V17.1a1,1,0,0,0-1-1H13.4V13.4h7.1v2.7H18.8a1,1,0,0,0-1,1v5.2a1,1,0,0,0,1,1H24a1,1,0,0,0,1-1V17.1a1,1,0,0,0-1-1Z"/>
</svg>
