<?xml version="1.0" encoding="utf-8"?>
<svg version="1.1" x="0" y="0" width="100%" height="100%" xmlns="http://www.w3.org/2000/svg" xmlns:xlink="http://www.w3.org/1999/xlink" viewBox="0 0 50 50" class="c-icon">
  <path
     d="m 28.846153,12.5 v -12.4999999 H 8.6538455 C 7.0607015,9.9999999e-8 5.7692305,1.2914709 5.7692305,2.8846155 V 47.115385 C 5.7692305,48.708529 7.0607015,50 8.6538455,50 H 41.346153 c 1.593145,0 2.884616,-1.291471 2.884616,-2.884615 v -31.73077 h -12.5 c -1.586536,0 -2.884616,-1.29808 -2.884616,-2.884615 z M 43.385932,8.7705479 35.460221,0.844837 C 34.919258,0.3038995 34.185572,4.3e-6 33.420553,9.9999999e-8 H 32.692307 V 11.538462 h 11.538462 v -0.728247 c -3e-6,-0.765017 -0.303899,-1.4987051 -0.844837,-2.0396671 z"
     style="stroke-width:0.120192" />
</svg>
