<?xml version="1.0" encoding="UTF-8" standalone="no"?>
<svg
   xmlns:svg="http://www.w3.org/2000/svg"
   xmlns="http://www.w3.org/2000/svg"
   id="svg817"
   class="c-icon"
   height="100%"
   width="100%"
   viewBox="0 0 50 50"
   y="0"
   x="0"
   version="1.1">
  <path
     style="stroke-width:3;stroke-linecap:round;stroke-linejoin:round;stroke-miterlimit:10;stroke-dasharray:none;stroke-opacity:1"
     d="m 4.3050688,5.2763899 c -1.5469002,0 -2.8218991,1.2749989 -2.8218991,2.8218991 v 34.715238 c -0.05879,0.216786 -0.036743,0.444596 0.05879,0.646685 0.264553,1.282347 1.4109496,2.263398 2.7631097,2.263398 H 40.989756 c 1.403602,0 2.557346,-1.058212 2.763111,-2.410372 0.0073,-0.05879 0.02571,-0.117579 0.0294,-0.176369 0,-0.01837 0,-0.04042 0,-0.05879 l 0.0294,-0.146973 c 0,-0.01102 0,-0.01837 0,-0.0294 l 4.67377,-25.220724 0.0294,-0.08819 v -0.08818 c 0,-1.546901 -1.274999,-2.8219 -2.821899,-2.8219 v -2.821899 c 0,-1.5469 -1.274999,-2.8218988 -2.821899,-2.8218988 h -24.42708 c 0.0037,0.00367 -0.0073,0 -0.0294,0 -0.02939,-0.022038 -0.1139,-0.091851 -0.264548,-0.2645452 C 17.918527,8.509816 17.650299,8.0688942 17.356352,7.5985777 17.062404,7.1282612 16.74641,6.6285499 16.35693,6.1876282 15.967449,5.7467065 15.423645,5.2763899 14.652032,5.2763899 Z m 0,1.881266 H 14.652032 c -0.05879,0 0.06246,0 0.293948,0.2645531 0.231484,0.264553 0.499711,0.7054748 0.793659,1.1757913 0.293947,0.4703165 0.617291,0.9700278 0.999423,1.4109497 0.382132,0.440921 0.90389,0.911238 1.675502,0.911238 h 24.456459 c 0.529106,0 0.940633,0.411527 0.940633,0.940633 V 14.68272 H 9.0082339 c -1.4807624,0 -2.6602278,1.190489 -2.7631095,2.645531 H 6.2157296 L 6.1863348,17.50462 3.3644358,32.731116 V 8.098289 c 0,-0.5291061 0.4115269,-0.9406331 0.940633,-0.9406331 z M 9.0082339,16.563986 H 45.692922 c 0.529106,0 0.940633,0.411527 0.940633,0.940634 l -4.614981,24.956169 -0.0294,0.05879 c -0.01102,0.03675 -0.02205,0.07717 -0.0294,0.11758 -0.01102,0.03675 -0.02204,0.07717 -0.0294,0.117579 0,0.01837 0,0.04042 0,0.05879 0,0.01102 0,0.01837 0,0.0294 -0.0147,0.04777 -0.02204,0.09553 -0.0294,0.146973 -0.0037,0.0294 0.0037,0.05879 0,0.08819 -0.0037,0.04042 -0.0037,0.07717 0,0.117579 -0.117579,0.382132 -0.481339,0.646686 -0.911238,0.646686 H 4.3050688 c -0.5291061,0 -0.940633,-0.411527 -0.940633,-0.940633 l 4.6737704,-25.220724 0.029394,-0.08819 v -0.08818 c 0,-0.529106 0.4115269,-0.940633 0.940633,-0.940633 z" />
</svg>
