<?xml version="1.0" encoding="utf-8"?>
<svg version="1.1" x="0" y="0" width="100%" height="100%" xmlns="http://www.w3.org/2000/svg" xmlns:xlink="http://www.w3.org/1999/xlink" viewBox="0 0 50 50" class="c-icon">
   <path
      style="stroke-width:0.09765625"
      d="M 15.625,17.96875 C 15.625,14.95322 18.07832,12.5 21.09375,12.5 H 34.375 V 5.46875 C 34.375,4.17432 33.32568,3.125 32.03125,3.125 H 24.15918 C 23.07676,1.25879 21.0583,0 18.75,0 16.4417,0 14.42324,1.25879 13.34082,3.125 H 5.46875 C 4.17432,3.125 3.125,4.17432 3.125,5.46875 v 32.8125 c 0,1.29443 1.04932,2.34375 2.34375,2.34375 H 15.625 Z M 18.75,3.90625 c 1.29443,0 2.34375,1.04932 2.34375,2.34375 0,1.29443 -1.04932,2.34375 -2.34375,2.34375 -1.29443,0 -2.34375,-1.04932 -2.34375,-2.34375 0,-1.29443 1.04932,-2.34375 2.34375,-2.34375 z M 36.71875,28.125 H 46.875 V 47.65625 C 46.875,48.95068 45.82568,50 44.53125,50 H 21.09375 C 19.79932,50 18.75,48.95068 18.75,47.65625 v -29.6875 c 0,-1.29443 1.04932,-2.34375 2.34375,-2.34375 H 34.375 v 10.15625 c 0,1.28906 1.05469,2.34375 2.34375,2.34375 z M 46.875,24.4083 V 25 H 37.5 v -9.375 h 0.5917 a 2.34375,2.34375 0 0 1 1.65723,0.68643 l 6.43955,6.43955 A 2.3439453,2.3439453 0 0 1 46.875,24.4083 Z" />
</svg>
