<?xml version="1.0" encoding="utf-8"?>
<svg version="1.1" x="0" y="0" width="100%" height="100%" xmlns="http://www.w3.org/2000/svg" xmlns:xlink="http://www.w3.org/1999/xlink" viewBox="0 0 50 50" class="c-icon">
   <path
      style="stroke-width:0.10080645"
      d="M 25,0 C 11.18952,0 0,11.18952 0,25 0,38.81048 11.18952,50 25,50 38.81048,50 50,38.81048 50,25 50,11.18952 38.81048,0 25,0 Z m 14.51613,27.82258 c 0,0.66532 -0.54436,1.20968 -1.20968,1.20968 h -9.27419 v 9.27419 c 0,0.66532 -0.54436,1.20968 -1.20968,1.20968 h -5.64516 c -0.66532,0 -1.20968,-0.54436 -1.20968,-1.20968 v -9.27419 h -9.27419 c -0.66532,0 -1.20968,-0.54436 -1.20968,-1.20968 v -5.64516 c 0,-0.66532 0.54436,-1.20968 1.20968,-1.20968 h 9.27419 v -9.27419 c 0,-0.66532 0.54436,-1.20968 1.20968,-1.20968 h 5.64516 c 0.66532,0 1.20968,0.54436 1.20968,1.20968 v 9.27419 h 9.27419 c 0.66532,0 1.20968,0.54436 1.20968,1.20968 z" />
</svg>
