<?xml version="1.0" encoding="utf-8"?>
<svg version="1.1" x="0" y="0" width="100%" height="100%" xmlns="http://www.w3.org/2000/svg" xmlns:xlink="http://www.w3.org/1999/xlink" viewBox="0 0 50 50" class="c-icon">
   <path
      style="stroke-width:0.09914083"
      d="m 48.810308,0.01651 h -4.70037 c -0.67941,0 -1.22082,0.56798 -1.1883,1.2466 l 0.39319,8.20479 C 38.805308,4.17041 32.089108,0.80964 24.587028,0.80964 11.038338,0.80964 -0.0100116,11.86642 -1.601718e-6,25.4151 0.0099984,38.9856 11.014148,49.98349 24.586928,49.98349 c 6.33768,0 12.11521,-2.39792 16.47502,-6.33589 0.50691,-0.45783 0.5308,-1.24531 0.0478,-1.72832 l -3.36791,-3.36792 c -0.44277,-0.44276 -1.154,-0.46765 -1.62393,-0.0538 -3.07347,2.70684 -7.1087,4.34782 -11.53097,4.34782 -9.64313,0 -17.4487896,-7.80397 -17.4487896,-17.44879 0,-9.64313 7.8039696,-17.44878 17.4487896,-17.44878 6.03688,0 11.35222,3.05928 14.48438,7.71315 l -10.06528,-0.48232 c -0.67862,-0.0325 -1.24659,0.50889 -1.24659,1.18831 v 4.70036 c 0,0.65701 0.53268,1.18969 1.18969,1.18969 h 19.86118 c 0.657,0 1.18969,-0.53268 1.18969,-1.18969 V 1.20623 c 0,-0.65701 -0.53269,-1.18969 -1.18969,-1.18969 z" />
</svg>
