<?xml version="1.0" encoding="utf-8"?>
<!-- Generator: Adobe Illustrator 22.1.0, SVG Export Plug-In . SVG Version: 6.00 Build 0)  -->
<svg version="1.1" x="0" y="0" width="100%" height="100%" xmlns="http://www.w3.org/2000/svg" xmlns:xlink="http://www.w3.org/1999/xlink" viewBox="0 0 25 25" class="c-icon">
	<path d="M11.9,19.5c-0.3-1.1,0.1-2.3,0.9-3.1L23.9,6.2c1.2-1.2,1.2-3.3,0-4.5l-0.2-0.2c-1.2-1.2-3.3-1.2-4.5,0
		L7.5,14.1c-0.6,0.7-1.4,1.1-2.3,1.4c-1,0.3-2,0.9-2.8,1.8c-1.3,1.5-1.6,3.7-0.8,5.6c0.1,0.4,0.3,0.7,0.5,1c0.4,0.6,1.2,0.4,1.4-0.3
		l0.6-2.7c0.2-1,1.3-1.7,2.3-1.5l1.2,0.3c1,0.2,1.7,1.3,1.5,2.3l-0.6,2.7c-0.1,0.6,0.7,1,1.2,0.6c0.2-0.2,0.5-0.4,0.7-0.6
		C11.8,23.2,12.3,21.3,11.9,19.5z M19.9,5.5c-0.8-0.8-0.8-2,0-2.8c0.8-0.8,2-0.8,2.8,0c0.8,0.8,0.8,2,0,2.8
		C22,6.2,20.7,6.2,19.9,5.5z"/>
</svg>
