<?xml version="1.0" encoding="utf-8"?>
<svg version="1.1" x="0" y="0" width="100%" height="100%" xmlns="http://www.w3.org/2000/svg" xmlns:xlink="http://www.w3.org/1999/xlink" viewBox="0 0 50 50" class="c-icon">
  <path
      style="stroke-width:0.09914093"
      d="M 21.050891,22.25707 H 1.1896913 C 0.53268133,22.25707 1.3264558e-6,21.72438 1.3264558e-6,21.06738 V 1.20618 C 1.3264558e-6,0.54917 0.53268133,0.01649 1.1896913,0.01649 h 4.75876 c 0.65701,0 1.1897,0.53268 1.1897,1.18969 V 8.95027 C 11.676121,3.91064 18.267711,0.75707 25.595711,0.81031 c 13.57299,0.0985 24.43308,11.06641 24.40423,24.63969 -0.0288,13.55445 -11.02566,24.53351 -24.58685,24.53351 -6.35384,0 -12.14437,-2.41041 -16.5079597,-6.36633 -0.50551,-0.45823 -0.52881,-1.24462 -0.0463,-1.72704 l 3.3675197,-3.36752 c 0.44355,-0.44355 1.15618,-0.46764 1.62601,-0.052 3.07693,2.7227 7.12387,4.37479 11.56072,4.37479 9.64324,0 17.4488,-7.80398 17.4488,-17.44881 0,-9.64314 -7.80397,-17.4488 -17.4488,-17.4488 -5.79935,0 -10.93326,2.82314 -14.10518,7.17116 h 9.74298 c 0.65701,0 1.18969,0.53269 1.18969,1.18969 v 4.75877 c 0,0.657 -0.53268,1.18969 -1.18969,1.18969 z" />
</svg>
