<?xml version="1.0" encoding="utf-8"?>
<svg version="1.1" x="0" y="0" width="100%" height="100%" xmlns="http://www.w3.org/2000/svg" xmlns:xlink="http://www.w3.org/1999/xlink" viewBox="0 0 25 25" class="c-icon">
   <path d="M3.9,4.1a.6.6,0,0,0-.6.6V20.4a.6.6,0,0,0,1.1,0V4.6A.6.6,0,0,0,3.9,4.1Z"/>
   <path d="M12.5,4.1a.6.6,0,0,0-.6.6V20.4a.6.6,0,0,0,1.1,0V4.6A.6.6,0,0,0,12.5,4.1Z"/>
   <path d="M6.8,10.9a.6.6,0,0,0-.6.6v8.9a.6.6,0,0,0,1.1,0V11.4A.6.6,0,0,0,6.8,10.9Z"/>
   <path d="M9.6,10.9a.6.6,0,0,0-.6.6v8.9a.6.6,0,0,0,1.1,0V11.4A.6.6,0,0,0,9.6,10.9Z"/>
   <path d="M21.1,4.1a.6.6,0,0,0-.6.6V20.4a.6.6,0,0,0,1.1,0V4.6A.6.6,0,0,0,21.1,4.1Z"/>
   <path d="M15.4,10.9a.6.6,0,0,0-.6.6v8.9a.6.6,0,0,0,1.1,0V11.4A.6.6,0,0,0,15.4,10.9Z"/>
   <path d="M18.2,10.9a.6.6,0,0,0-.6.6v8.9a.6.6,0,0,0,1.1,0V11.4A.6.6,0,0,0,18.2,10.9Z"/>
   <path d="M23.5,1H1.5A1.5,1.5,0,0,0,0,2.5v20A1.5,1.5,0,0,0,1.5,24h22A1.5,1.5,0,0,0,25,22.5V2.5A1.5,1.5,0,0,0,23.5,1Z
      m.4,21.5a.4.4,0,0,1-.4.4H1.5a.4.4,0,0,1-.4-.4V2.5a.4.4,0,0,1,.4-.4h22a.4.4,0,0,1,.4.4Z"/>
</svg>
