<?xml version="1.0" encoding="UTF-8" standalone="no"?>
<svg xmlns:svg="http://www.w3.org/2000/svg" xmlns="http://www.w3.org/2000/svg" version="1.1" viewBox="0 0 50 50" xml:space="preserve" class="c-icon">
	<path style="stroke-width:0.05713748" d="m 2.3171918,37.887941 v 3.112908 c 0,4.962161 4.0369915,8.999153 8.9991532,8.999153 h 27.36731 c 4.962162,0 8.999153,-4.036992 8.999153,-8.999153 v -3.112908 c 0,-1.656701 -1.343073,-2.999717 -2.999717,-2.999717 -1.656759,0 -2.999718,1.343016 -2.999718,2.999717 v 3.112908 c 0,1.654072 -1.345759,2.999717 -2.999718,2.999717 h -27.36731 c -1.654073,0 -2.9997178,-1.345645 -2.9997178,-2.999717 v -3.112908 c 0,-1.656701 -1.3430165,-2.999717 -2.9997177,-2.999717 -1.6567012,0 -2.9997177,1.342959 -2.9997177,2.999717 z" /><path style="stroke-width:0.05713748" id="path1027" d="M 27.229819,0.89136602 C 26.670614,0.32547642 25.909543,0.00482089 25.113961,7.8474263e-5 24.317007,-0.00574955 23.553479,0.30673533 22.987647,0.86593985 L 15.372763,8.3899746 c -1.17846,1.1644047 -1.189831,3.0637114 -0.02543,4.2421724 0.586859,0.593887 1.360215,0.891345 2.133971,0.891345 0.761642,0 1.523685,-0.288316 2.108201,-0.865919 l 2.410745,-2.382004 v 27.498098 c 0,1.656701 1.343016,2.999717 2.999717,2.999717 1.656702,0 2.999718,-1.343016 2.999718,-2.999717 V 10.206489 l 2.385261,2.414059 c 1.164519,1.17846 3.063769,1.189888 4.24223,0.02543 1.17846,-1.164462 1.189831,-3.0637116 0.02543,-4.2421721 z" />
</svg>