<?xml version="1.0" encoding="utf-8"?>
<svg version="1.1" x="0" y="0" width="100%" height="100%" xmlns="http://www.w3.org/2000/svg" xmlns:xlink="http://www.w3.org/1999/xlink" viewBox="0 0 25 25" class="c-icon">
   <path class="st3" d="M12.5,1C18.8,1,24,6.2,24,12.5C24,18.8,18.8,24,12.5,24C6.2,24,1,18.8,1,12.5C1,6.2,6.2,1,12.5,1 M12.5,0
      C5.6,0,0,5.6,0,12.5C0,19.4,5.6,25,12.5,25C19.4,25,25,19.4,25,12.5C25,5.6,19.4,0,12.5,0L12.5,0z"/>
	<path class="st3" d="M11.3,18.1c0-0.7,0.5-1.2,1.2-1.2c0.7,0,1.2,0.5,1.2,1.2c0,0.7-0.5,1.2-1.2,1.2C11.8,19.3,11.3,18.8,11.3,18.1
      z M11.8,15.2l-0.3-9.6h1.9l-0.3,9.6H11.8z"/>
</svg>
